<?xml version="1.0" standalone="no"?>
<!DOCTYPE svg PUBLIC "-//W3C//DTD SVG 20010904//EN"
 "http://www.w3.org/TR/2001/REC-SVG-20010904/DTD/svg10.dtd">
<svg version="1.0" xmlns="http://www.w3.org/2000/svg"
 width="498.000000pt" height="431.000000pt" viewBox="0 0 498.000000 431.000000"
 preserveAspectRatio="xMidYMid meet">

<g transform="translate(0.000000,431.000000) scale(0.100000,-0.100000)"
fill="#000000" stroke="none">
<path d="M2747 4182 c-19 -20 -23 -37 -7 -27 10 6 33 45 27 45 -2 0 -11 -8
-20 -18z"/>
<path d="M3058 4183 c23 -2 61 -2 85 0 23 2 4 4 -43 4 -47 0 -66 -2 -42 -4z"/>
<path d="M2875 4159 c-12 -18 1 -20 31 -4 l29 15 -27 0 c-15 0 -30 -5 -33 -11z"/>
<path d="M2800 4123 c-14 -10 -34 -25 -44 -35 -26 -23 -36 -23 -36 2 0 11 5
20 10 20 6 0 10 5 10 10 0 22 -21 8 -37 -26 l-17 -35 -74 3 c-70 3 -72 2 -52
-14 17 -14 36 -16 108 -12 72 5 130 9 151 13 2 1 -1 7 -7 14 -8 9 -5 19 8 37
33 42 23 53 -20 23z"/>
<path d="M2273 4093 c9 -2 25 -2 35 0 9 3 1 5 -18 5 -19 0 -27 -2 -17 -5z"/>
<path d="M2138 4073 c7 -3 16 -2 19 1 4 3 -2 6 -13 5 -11 0 -14 -3 -6 -6z"/>
<path d="M2468 4073 c7 -3 16 -2 19 1 4 3 -2 6 -13 5 -11 0 -14 -3 -6 -6z"/>
<path d="M1705 4001 c-3 -6 -32 -18 -65 -28 -33 -9 -62 -24 -65 -32 -8 -20 2
-26 20 -11 8 7 24 10 35 7 10 -3 19 -2 18 2 -3 26 4 32 35 28 24 -2 33 -9 35
-25 2 -12 8 -22 13 -22 5 0 9 -10 9 -22 0 -26 -66 -85 -90 -80 -11 2 -12 1 -2
-6 9 -6 6 -15 -13 -38 -14 -16 -25 -33 -25 -39 0 -5 -8 -1 -17 10 -12 16 -14
16 -10 3 3 -10 2 -20 -3 -23 -6 -4 -10 11 -10 34 0 22 -5 42 -12 44 -10 4 -10
6 0 6 6 1 12 9 11 19 0 10 -3 12 -6 4 -2 -6 -9 -10 -14 -6 -11 7 -12 71 0 76
4 2 5 11 2 21 -6 16 -8 16 -31 -5 -13 -12 -33 -24 -44 -25 -12 -2 -28 -12 -38
-23 -11 -14 -18 -16 -22 -8 -3 10 -8 9 -18 -3 -7 -9 -25 -19 -40 -23 -16 -3
-28 -10 -28 -15 0 -4 -12 -20 -26 -35 -23 -23 -26 -34 -25 -85 1 -64 -7 -78
-38 -61 -11 6 -33 12 -48 15 -15 2 -40 7 -55 11 -16 3 -28 4 -28 0 0 -11 59
-36 85 -36 30 0 105 -36 105 -50 0 -6 -25 -10 -55 -10 -40 0 -57 -4 -61 -15
-4 -8 -10 -13 -14 -10 -10 6 -25 -14 -16 -22 3 -3 13 0 22 8 17 14 106 21 131
12 7 -3 13 -18 13 -33 0 -16 5 -32 10 -35 6 -3 10 -17 10 -30 0 -13 4 -34 9
-47 6 -13 22 -65 37 -116 29 -97 46 -112 52 -46 2 21 7 44 12 49 4 6 11 24 14
40 26 147 56 265 68 265 4 0 8 8 8 18 0 16 67 98 155 188 48 50 146 114 174
114 36 0 31 18 -7 25 -20 4 -39 10 -42 14 -7 12 -88 61 -99 61 -5 0 -12 -4
-16 -9z m-258 -175 c-3 -6 -10 -10 -16 -8 -8 1 -9 -2 -4 -10 4 -7 9 -22 9 -33
3 -34 16 -65 25 -59 5 3 9 -2 9 -10 0 -9 -4 -16 -10 -16 -16 0 -12 -19 10 -42
11 -12 17 -24 14 -27 -3 -3 -9 1 -14 9 -5 8 -15 15 -22 16 -7 0 -21 2 -32 2
-12 2 -16 7 -12 18 5 13 4 14 -7 6 -10 -9 -22 -7 -48 7 -29 16 -34 24 -37 60
-2 29 1 41 10 41 7 0 26 11 41 25 15 14 27 21 27 15 0 -7 5 -6 14 3 17 16 48
19 43 3z"/>
<path d="M3052 3918 c-9 -3 19 -6 63 -6 83 0 84 5 2 10 -26 2 -55 0 -65 -4z"/>
<path d="M3240 3896 c0 -2 7 -7 16 -10 8 -3 12 -2 9 4 -6 10 -25 14 -25 6z"/>
<path d="M3350 3814 c0 -12 50 -58 56 -52 2 3 -10 17 -26 33 -17 16 -30 24
-30 19z"/>
<path d="M3488 3742 c-27 -8 -48 -18 -48 -21 0 -10 102 -111 111 -111 5 0 9
-10 10 -22 0 -22 1 -22 8 -3 6 15 2 26 -15 42 -13 12 -24 33 -24 46 0 28 24
54 35 37 9 -15 24 -12 21 5 -2 14 -35 45 -46 44 -3 -1 -26 -8 -52 -17z"/>
<path d="M3607 3696 c-7 -18 1 -26 25 -26 11 0 17 -4 14 -9 -3 -5 4 -11 15
-14 11 -3 23 -15 26 -26 3 -12 9 -21 14 -21 5 0 9 -5 9 -11 0 -5 -4 -7 -10 -4
-9 6 -14 -8 -11 -27 0 -5 -2 -7 -6 -7 -23 4 -35 -3 -29 -16 6 -17 -16 -75 -30
-78 -5 -1 -8 -6 -8 -12 5 -29 64 -247 72 -262 14 -26 26 -220 14 -227 -5 -3
-18 16 -27 41 -10 26 -29 59 -42 73 -13 13 -23 28 -23 32 0 5 -4 8 -10 8 -6 0
-10 -39 -10 -97 -1 -54 -7 -123 -15 -153 -27 -108 -43 -159 -58 -190 -21 -40
-33 -120 -19 -120 6 0 18 -7 26 -16 14 -14 16 -14 16 0 0 8 -7 19 -16 24 -15
8 -14 14 7 53 13 24 26 46 29 49 11 11 45 68 80 134 40 77 57 91 62 51 2 -14
7 -27 13 -28 11 -2 21 45 31 142 5 46 17 84 42 130 63 117 83 144 95 132 17
-17 57 -14 57 4 0 11 -8 14 -30 10 -23 -4 -30 -2 -30 10 0 9 8 18 18 21 34 11
62 28 62 36 0 5 -10 6 -21 3 -34 -11 -39 13 -17 72 20 51 20 54 3 73 -22 24
-35 26 -35 5 0 -8 -7 -15 -15 -15 -8 0 -15 -7 -15 -17 0 -9 -3 -13 -7 -10 -3
4 -12 -1 -20 -11 -9 -10 -12 -11 -7 -2 4 8 -6 3 -23 -12 -16 -16 -34 -28 -41
-28 -6 0 -16 -8 -22 -17 -9 -15 -10 -14 -4 6 4 17 3 21 -6 16 -8 -5 -11 -3 -8
6 3 8 11 13 17 12 6 -2 10 0 10 5 -3 20 2 43 9 38 4 -2 7 11 6 29 -1 21 5 41
17 53 26 29 36 72 16 72 -9 0 -39 22 -69 48 -48 43 -101 82 -112 82 -2 0 -6
-6 -9 -14z"/>
<path d="M2421 3660 c-14 -47 -6 -70 15 -43 15 20 19 83 6 83 -5 0 -14 -18
-21 -40z"/>
<path d="M3576 3565 c-6 -18 20 -85 34 -85 13 0 13 47 0 52 -6 2 -12 13 -13
26 -1 25 -12 29 -21 7z"/>
<path d="M3011 3528 c1 -7 5 -24 9 -38 7 -22 8 -21 9 13 1 20 -3 37 -9 37 -5
0 -10 -6 -9 -12z"/>
<path d="M3852 3513 c2 -10 10 -18 18 -18 22 0 18 29 -3 33 -14 3 -18 -1 -15
-15z"/>
<path d="M958 3449 l-76 -50 -111 -2 c-61 -1 -111 -4 -111 -8 0 -3 -20 -16
-45 -29 -25 -13 -45 -29 -45 -37 0 -18 39 -17 46 2 4 10 13 13 25 10 10 -3 31
0 46 8 33 17 142 20 162 3 11 -8 13 -8 7 1 -5 9 -2 11 8 7 9 -3 14 -9 12 -13
-2 -3 12 -6 32 -7 20 0 38 -6 40 -12 2 -7 10 -12 18 -12 26 0 73 -35 65 -49
-11 -17 -20 -16 -35 5 -10 13 -15 14 -21 4 -5 -9 -4 -11 3 -6 7 4 13 2 13 -3
5 -42 2 -65 -8 -68 -7 -3 -13 0 -13 7 0 6 4 9 9 6 11 -7 8 20 -3 31 -4 4 -7 3
-6 -2 5 -23 -1 -26 -17 -8 -10 10 -14 13 -10 6 13 -19 26 -84 16 -77 -5 3 -9
13 -9 22 0 9 -4 22 -8 29 -4 6 -7 -5 -7 -27 0 -23 4 -36 10 -32 5 3 4 -1 -3
-10 -10 -12 -10 -17 1 -27 8 -6 16 -9 19 -6 2 3 5 -2 5 -10 0 -12 -6 -10 -24
7 -12 12 -23 17 -23 11 0 -6 7 -16 15 -23 8 -7 15 -20 14 -29 0 -10 -4 -6 -10
9 -8 20 -12 22 -20 10 -9 -12 -10 -12 -5 3 3 9 1 17 -5 17 -6 0 -7 5 -4 10 3
6 1 10 -4 10 -6 0 -11 5 -11 11 0 5 4 8 9 4 11 -6 20 6 26 33 2 11 -3 19 -10
19 -8 0 -12 -9 -9 -24 3 -15 1 -22 -6 -18 -5 3 -10 15 -10 25 0 10 -4 21 -9
25 -6 3 -7 -6 -2 -22 5 -16 5 -37 1 -48 -7 -17 -8 -16 -12 10 l-5 30 -2 -33
c0 -18 -5 -31 -10 -28 -5 3 -7 16 -4 29 3 12 3 19 -2 15 -4 -4 -8 -34 -8 -67
-1 -36 -5 -61 -11 -61 -6 0 -4 -5 4 -10 9 -6 10 -10 3 -10 -6 0 -15 5 -18 10
-4 6 -10 8 -15 5 -5 -3 -7 4 -5 15 3 13 -6 31 -23 48 -15 16 -19 18 -9 7 24
-30 21 -42 -5 -19 l-23 19 19 -22 c17 -21 15 -28 -6 -24 -4 0 -2 -10 4 -24 6
-13 14 -22 18 -20 4 2 7 -2 7 -10 0 -8 -4 -12 -8 -10 -11 8 -31 -23 -24 -37 4
-7 -1 -4 -9 6 -9 11 -16 26 -16 34 0 12 3 12 17 1 14 -12 16 -12 8 0 -6 10 -4
12 4 6 7 -4 5 4 -4 19 -16 24 -34 39 -20 16 10 -17 -6 -34 -17 -19 -9 13 -4
-10 10 -51 3 -8 2 -12 -3 -8 -4 4 -16 -3 -26 -15 -13 -14 -18 -17 -17 -7 2 9
-3 14 -13 12 -10 -1 -19 7 -22 20 -8 31 1 36 12 7 9 -21 10 -22 11 -4 1 18 2
17 15 -5 8 -14 14 -20 15 -15 0 6 -7 20 -15 31 -8 12 -13 23 -10 25 2 3 -6 15
-17 29 l-20 25 16 -27 c10 -17 12 -29 6 -33 -6 -3 -10 0 -10 7 -1 9 -4 8 -10
-3 -6 -10 -4 -32 5 -63 8 -26 10 -44 5 -41 -6 4 -10 12 -10 20 0 8 -4 16 -9
20 -6 3 -6 -6 -1 -23 7 -26 6 -29 -16 -26 -13 1 -28 -4 -35 -12 -14 -17 -29
-18 -29 -3 0 5 5 7 12 3 7 -5 8 -3 3 6 -6 9 -4 11 5 5 8 -5 11 -4 6 3 -4 7 1
10 14 7 21 -4 18 6 -11 45 -9 13 -10 13 -5 -2 3 -9 -4 -27 -14 -40 -11 -13
-19 -18 -20 -12 0 5 5 15 10 20 7 7 6 11 -4 11 -8 0 -15 -3 -14 -6 0 -3 0 -13
-1 -21 -1 -13 -3 -13 -10 0 -6 8 -8 17 -6 21 3 3 -5 15 -18 25 -20 18 -21 18
-7 1 17 -23 24 -61 10 -52 -6 4 -9 1 -8 -7 2 -8 -4 -12 -14 -10 -10 2 -18 1
-18 -1 0 -2 30 -35 68 -73 37 -39 89 -96 116 -127 27 -31 55 -57 62 -57 13 0
83 -44 94 -58 3 -4 22 -18 42 -32 21 -14 38 -29 38 -33 0 -4 9 -17 20 -29 21
-23 27 -82 10 -93 -5 -3 -10 -15 -10 -26 0 -10 -3 -19 -6 -19 -9 0 -44 41 -44
51 0 5 -7 6 -15 3 -8 -4 -15 -1 -15 5 0 6 -7 11 -15 11 -23 0 -17 -13 19 -40
24 -17 33 -32 31 -48 -3 -29 -6 -32 -52 -44 -129 -33 -211 -41 -274 -27 -46
11 -79 -3 -39 -16 12 -4 24 -5 26 -2 3 3 26 -1 52 -7 l47 -12 5 -110 c6 -125
20 -109 20 24 0 70 2 82 17 82 9 0 30 4 47 9 17 5 55 15 85 22 108 24 148 69
162 179 12 94 33 180 44 180 6 0 59 -48 116 -107 l106 -108 2 -243 c1 -140 -2
-249 -7 -255 -15 -18 -22 -106 -10 -113 14 -9 28 15 29 51 0 17 3 144 5 283 3
138 9 252 13 252 4 0 38 -28 75 -62 53 -49 73 -77 94 -128 l28 -65 49 -3 c41
-3 55 -8 77 -34 15 -18 29 -49 33 -75 6 -39 8 -43 19 -27 9 12 15 14 20 6 8
-14 26 -16 26 -3 0 5 -27 44 -60 87 -57 75 -63 79 -106 84 -43 5 -47 8 -60 45
-17 51 -18 85 -1 85 22 0 130 59 160 88 31 29 67 92 67 115 0 8 6 20 14 26 11
9 20 4 45 -26 18 -21 34 -48 37 -60 6 -23 34 -33 34 -12 0 7 -10 28 -22 48
-13 20 -25 56 -29 81 -5 40 -7 43 -15 22 l-10 -23 -14 25 c-7 14 -17 26 -22
26 -8 0 -66 115 -88 177 -7 18 -16 30 -21 28 -8 -6 -29 26 -29 44 0 6 10 11
21 11 20 0 21 4 14 38 -4 20 -9 84 -11 141 -2 57 -6 106 -8 109 -3 2 -30 -20
-60 -50 -30 -31 -59 -52 -65 -49 -5 4 -16 19 -25 35 -12 23 -12 33 -2 57 14
33 9 100 -5 78 -5 -8 -9 -29 -9 -46 0 -18 -4 -33 -9 -33 -5 0 -61 40 -123 90
-62 49 -138 103 -168 120 -101 56 -123 69 -132 78 -6 6 16 32 53 66 80 72 54
74 -53 5z m109 -195 c-3 -3 -12 -4 -19 -1 -8 3 -5 6 6 6 11 1 17 -2 13 -5z
m-55 -96 c-8 -8 -9 -4 -5 13 4 13 8 18 11 10 2 -7 -1 -18 -6 -23z m-28 -34 c3
-8 2 -12 -4 -9 -6 3 -10 10 -10 16 0 14 7 11 14 -7z m560 -171 c2 -59 1 -112
-1 -116 -7 -11 -32 24 -33 44 0 9 -7 30 -15 45 -8 16 -15 37 -15 46 0 17 52
99 58 93 2 -2 5 -52 6 -112z m-763 84 c-6 -8 -8 -17 -4 -20 3 -4 1 -7 -5 -7
-15 0 -15 13 0 28 16 16 23 15 9 -1z m29 -87 c-5 -10 -7 -20 -5 -24 3 -3 0 -2
-7 4 -8 6 -17 5 -27 -3 -14 -11 -14 -10 -2 5 7 10 18 15 24 11 6 -4 8 0 5 9
-4 8 0 15 7 15 10 0 11 -5 5 -17z m-142 -52 c10 -12 10 -18 1 -24 -7 -4 -9 -3
-5 4 3 6 2 13 -4 17 -5 3 -10 11 -10 17 0 6 1 9 3 7 1 -2 8 -11 15 -21z m52 7
c0 -2 -6 -8 -13 -14 -10 -8 -14 -7 -14 2 0 8 6 14 14 14 7 0 13 -1 13 -2z m75
-7 c5 4 5 1 1 -6 -6 -10 -11 -10 -22 -1 -8 6 -14 14 -14 16 0 3 6 0 13 -6 8
-6 18 -7 22 -3z m-61 -17 c3 -5 -1 -14 -8 -20 -10 -9 -16 -9 -21 -1 -4 6 -1 9
7 8 7 -2 12 3 11 10 -3 14 3 16 11 3z m-204 -27 c0 -7 -4 -15 -8 -18 -12 -7
-36 10 -29 21 9 14 37 12 37 -3z m160 12 c0 -2 -8 -10 -17 -17 -16 -13 -17
-12 -4 4 13 16 21 21 21 13z m-116 -51 c-8 -12 -11 -25 -7 -30 5 -4 2 -5 -5
-1 -8 5 -9 13 -2 25 5 10 7 20 5 23 -3 3 1 5 9 5 12 0 12 -3 0 -22z m76 19 c0
-8 -19 -13 -24 -6 -3 5 1 9 9 9 8 0 15 -2 15 -3z"/>
<path d="M2990 3406 c0 -8 5 -18 10 -21 6 -3 10 1 10 9 0 8 -4 18 -10 21 -5 3
-10 -1 -10 -9z"/>
<path d="M3010 3356 c0 -8 5 -18 10 -21 6 -3 10 1 10 9 0 8 -4 18 -10 21 -5 3
-10 -1 -10 -9z"/>
<path d="M716 3318 c3 -4 11 -5 19 -1 21 7 19 12 -4 10 -11 0 -18 -5 -15 -9z"/>
<path d="M3042 3310 c0 -14 2 -19 5 -12 2 6 2 18 0 25 -3 6 -5 1 -5 -13z"/>
<path d="M3995 3310 c-3 -5 -1 -10 4 -10 6 0 11 5 11 10 0 6 -2 10 -4 10 -3 0
-8 -4 -11 -10z"/>
<path d="M503 3283 c-30 -27 -45 -60 -27 -60 7 0 12 3 9 5 -3 3 13 16 36 30
31 18 38 27 28 33 -19 12 -23 11 -46 -8z"/>
<path d="M3060 3264 c0 -8 5 -12 10 -9 6 4 8 11 5 16 -9 14 -15 11 -15 -7z"/>
<path d="M1947 3233 c-4 -3 -7 -11 -7 -17 0 -6 5 -5 12 2 6 6 9 14 7 17 -3 3
-9 2 -12 -2z"/>
<path d="M873 3217 c-3 -7 -3 -9 2 -5 4 4 14 3 21 -3 8 -7 14 -7 19 1 3 5 5
10 3 11 -27 6 -39 5 -45 -4z"/>
<path d="M382 3187 c-18 -18 -32 -36 -32 -41 0 -4 -20 -28 -44 -54 -25 -26
-56 -64 -70 -85 -14 -21 -35 -47 -46 -59 -19 -21 -26 -38 -14 -38 3 0 24 11
47 25 44 25 66 25 117 2 14 -7 29 -18 33 -24 4 -7 14 -13 22 -13 7 0 15 -5 17
-12 2 -6 10 -8 17 -4 9 6 6 12 -11 24 -13 9 -27 17 -33 17 -5 1 -9 7 -7 14 1
7 -2 10 -7 7 -5 -4 -12 -2 -16 4 -4 6 -11 8 -16 5 -5 -4 -9 -1 -9 5 0 6 -5 8
-10 5 -17 -10 -23 22 -9 47 7 13 14 29 15 35 1 7 16 30 33 52 17 21 31 43 31
48 0 4 9 14 20 21 21 12 27 37 12 46 -5 3 -23 -9 -40 -27z"/>
<path d="M1921 3154 c0 -11 3 -14 6 -6 3 7 2 16 -1 19 -3 4 -6 -2 -5 -13z"/>
<path d="M770 3145 c0 -2 6 -8 13 -14 10 -8 14 -7 14 2 0 8 -6 14 -14 14 -7 0
-13 -1 -13 -2z"/>
<path d="M4090 3131 c0 -6 4 -12 10 -16 15 -9 100 -140 101 -156 1 -7 4 -3 8
11 6 19 13 24 32 23 20 -2 9 11 -55 72 -76 72 -96 86 -96 66z"/>
<path d="M1890 3104 c0 -14 3 -14 15 -4 8 7 15 14 15 16 0 2 -7 4 -15 4 -8 0
-15 -7 -15 -16z"/>
<path d="M816 3085 c4 -8 8 -15 10 -15 2 0 4 7 4 15 0 8 -4 15 -10 15 -5 0 -7
-7 -4 -15z"/>
<path d="M800 3072 c6 -12 8 -27 5 -32 -3 -5 0 -12 6 -16 7 -4 9 -3 5 4 -3 5
-2 12 3 14 6 1 1 14 -10 28 -19 23 -19 23 -9 2z"/>
<path d="M2150 3069 c-36 -4 -103 -13 -150 -19 -47 -7 -96 -13 -109 -14 -30
-3 -40 -25 -17 -38 9 -5 16 -20 16 -33 0 -32 21 -32 137 -1 48 12 126 29 173
36 111 16 107 14 112 44 8 38 -19 42 -162 25z"/>
<path d="M700 3067 c0 -2 6 -10 14 -16 11 -9 16 -9 22 1 4 7 4 10 -1 6 -4 -4
-14 -3 -22 3 -7 6 -13 9 -13 6z"/>
<path d="M680 3056 c0 -2 8 -10 18 -17 15 -13 16 -12 3 4 -13 16 -21 21 -21
13z"/>
<path d="M3222 3040 c-10 -16 -10 -25 0 -43 l13 -22 3 23 c2 12 2 31 0 42 l-3
21 -13 -21z"/>
<path d="M663 3037 c0 -8 6 -14 14 -14 9 0 10 4 2 14 -6 7 -12 13 -14 13 -1 0
-2 -6 -2 -13z"/>
<path d="M681 3000 c0 -8 4 -24 9 -35 5 -13 9 -14 9 -5 0 8 -4 24 -9 35 -5 13
-9 14 -9 5z"/>
<path d="M534 2945 c0 -13 3 -22 7 -19 8 4 6 30 -2 38 -3 3 -5 -5 -5 -19z"/>
<path d="M584 2944 c1 -7 6 -17 10 -21 4 -4 6 -1 4 7 -2 9 3 14 12 12 8 -2 11
0 7 4 -13 14 -35 12 -33 -2z"/>
<path d="M496 2938 c3 -5 10 -6 15 -3 13 9 11 12 -6 12 -8 0 -12 -4 -9 -9z"/>
<path d="M2847 2929 c-4 -13 -5 -24 -4 -25 6 -6 158 -94 163 -94 2 0 41 -25
85 -55 54 -37 90 -55 111 -55 26 0 29 2 18 15 -12 15 -11 16 13 19 6 0 13 14
15 30 3 22 0 27 -11 23 -8 -3 -30 4 -48 15 -72 44 -267 137 -301 143 -31 6
-36 4 -41 -16z"/>
<path d="M130 2848 c-24 -50 -24 -49 -5 -42 8 4 15 15 15 25 0 10 4 19 9 19 5
0 11 9 14 20 9 35 -12 21 -33 -22z"/>
<path d="M430 2870 c0 -5 4 -10 9 -10 6 0 13 5 16 10 3 6 -1 10 -9 10 -9 0
-16 -4 -16 -10z"/>
<path d="M163 2812 c-12 -2 -27 -10 -33 -18 -7 -8 -20 -14 -29 -14 -16 0 -48
-76 -36 -88 5 -6 41 32 48 51 7 20 15 4 20 -43 7 -58 17 -90 28 -90 5 0 9 -8
9 -19 0 -10 7 -24 15 -31 8 -7 15 -17 15 -22 0 -9 30 -40 86 -89 17 -14 57
-38 89 -53 33 -15 68 -32 77 -37 10 -5 33 -9 51 -9 19 0 36 -3 40 -6 11 -12
102 -10 151 2 27 7 53 11 57 8 10 -6 22 33 14 46 -3 5 -15 10 -26 10 -10 0
-27 4 -37 9 -9 5 -37 17 -62 27 -27 11 -75 49 -120 92 -123 121 -234 226 -256
245 -25 21 -71 34 -101 29z"/>
<path d="M56 2667 c-14 -30 2 -168 17 -146 1 2 0 40 -3 84 -4 53 -9 74 -14 62z"/>
<path d="M4292 2650 c0 -14 2 -19 5 -12 2 6 2 18 0 25 -3 6 -5 1 -5 -13z"/>
<path d="M1752 2610 c0 -14 2 -19 5 -12 2 6 2 18 0 25 -3 6 -5 1 -5 -13z"/>
<path d="M4500 2544 c0 -8 5 -12 10 -9 6 3 10 10 10 16 0 5 -4 9 -10 9 -5 0
-10 -7 -10 -16z"/>
<path d="M87 2493 c-4 -6 0 -16 8 -23 21 -17 28 -8 11 15 -8 11 -15 14 -19 8z"/>
<path d="M4312 2470 c0 -14 2 -19 5 -12 2 6 2 18 0 25 -3 6 -5 1 -5 -13z"/>
<path d="M3431 2434 c0 -11 3 -14 6 -6 3 7 2 16 -1 19 -3 4 -6 -2 -5 -13z"/>
<path d="M130 2415 c0 -6 77 -83 103 -104 14 -11 17 -11 17 1 0 8 -18 27 -39
44 -22 16 -42 37 -44 47 -4 15 -37 26 -37 12z"/>
<path d="M3410 2378 c0 -19 2 -20 10 -8 13 19 13 30 0 30 -5 0 -10 -10 -10
-22z"/>
<path d="M3220 2371 c-13 -25 -13 -33 3 -55 12 -16 13 -13 16 28 2 50 -3 57
-19 27z"/>
<path d="M1800 2353 c0 -15 77 -113 90 -113 24 0 82 -40 77 -53 -2 -7 -14 -11
-26 -9 -19 3 -20 1 -9 -22 6 -14 14 -26 18 -26 4 0 10 -9 13 -20 3 -11 14 -20
24 -20 27 0 43 -19 43 -52 0 -32 15 -38 23 -9 6 23 -37 91 -57 91 -8 0 -19 6
-25 14 -31 38 89 18 150 -25 36 -25 83 -36 77 -18 -3 8 -18 21 -34 29 -16 8
-65 35 -109 59 -44 24 -98 53 -119 65 -22 11 -61 42 -88 68 -26 26 -48 44 -48
41z"/>
<path d="M3391 2334 c0 -11 3 -14 6 -6 3 7 2 16 -1 19 -3 4 -6 -2 -5 -13z"/>
<path d="M3742 2172 c0 -100 3 -184 7 -187 5 -2 9 -34 10 -69 1 -36 4 -74 6
-84 7 -39 27 -108 36 -124 5 -10 9 -30 9 -45 0 -16 7 -37 15 -47 8 -10 12 -22
10 -27 -3 -4 0 -20 6 -36 7 -15 13 -35 14 -43 2 -15 21 -78 36 -115 4 -11 13
-42 21 -69 7 -27 19 -51 26 -53 6 -3 12 -18 12 -34 0 -16 5 -29 11 -29 6 0 9
-7 5 -15 -3 -8 3 -20 13 -27 10 -7 22 -29 26 -48 4 -19 11 -37 14 -40 4 -3 17
-22 30 -42 12 -21 27 -38 32 -38 6 0 8 -4 5 -8 -7 -12 31 -58 41 -49 4 5 0 14
-10 21 -9 7 -17 21 -17 30 0 9 -4 16 -10 16 -5 0 -10 7 -10 15 0 8 -4 15 -9
15 -6 0 -8 9 -6 19 2 11 -3 22 -11 25 -8 3 -14 12 -14 21 0 8 -4 15 -10 15 -5
0 -10 11 -10 25 0 14 -4 25 -10 25 -5 0 -16 17 -25 38 -9 20 -21 45 -26 54 -5
10 -9 27 -9 38 0 11 -4 20 -10 20 -5 0 -10 13 -10 29 0 17 -4 33 -10 36 -5 3
-10 16 -10 28 0 13 -7 32 -15 43 -8 12 -12 24 -8 27 3 4 0 14 -7 22 -7 9 -14
28 -16 43 -4 38 -23 112 -37 141 -7 13 -11 32 -9 42 2 10 -2 27 -8 38 -5 11
-12 37 -15 58 -2 21 -11 85 -18 143 -8 58 -15 161 -16 229 -1 69 -6 132 -11
140 -6 10 -9 -54 -8 -167z"/>
<path d="M276 2291 c-4 -5 10 -15 29 -22 19 -7 35 -17 35 -21 0 -4 5 -8 10 -8
19 0 10 15 -23 35 -45 27 -44 27 -51 16z"/>
<path d="M3365 2291 c-3 -5 -1 -12 5 -16 5 -3 10 1 10 9 0 18 -6 21 -15 7z"/>
<path d="M4330 2140 c0 -80 4 -130 10 -130 6 0 10 50 10 130 0 80 -4 130 -10
130 -6 0 -10 -50 -10 -130z"/>
<path d="M370 2242 c0 -10 45 -32 63 -32 16 1 -34 39 -50 40 -7 0 -13 -4 -13
-8z"/>
<path d="M3342 2238 c-21 -21 -14 -39 16 -36 l27 3 5 -85 c6 -108 20 -80 20
41 l0 89 -28 0 c-15 0 -33 -5 -40 -12z"/>
<path d="M3212 2227 c-10 -12 -11 -25 -3 -51 5 -22 6 -36 0 -36 -5 0 -9 -9 -9
-20 0 -10 -7 -40 -16 -65 -8 -26 -14 -54 -12 -63 7 -31 41 50 40 92 -1 21 2
44 7 50 13 17 19 59 12 85 -6 21 -8 22 -19 8z"/>
<path d="M3149 2203 l-24 -26 26 17 c14 9 29 13 32 9 4 -3 7 -1 7 5 0 23 -18
21 -41 -5z"/>
<path d="M3310 2165 c-11 -13 -10 -14 4 -9 9 3 16 10 16 15 0 13 -6 11 -20 -6z"/>
<path d="M3265 2113 c-11 -15 -24 -33 -28 -41 -15 -23 29 4 47 30 31 44 13 53
-19 11z"/>
<path d="M2918 2093 c7 -3 16 -2 19 1 4 3 -2 6 -13 5 -11 0 -14 -3 -6 -6z"/>
<path d="M2328 2073 c6 -2 18 -2 25 0 6 3 1 5 -13 5 -14 0 -19 -2 -12 -5z"/>
<path d="M2758 2073 c-27 -7 -22 -20 14 -37 44 -23 61 -21 53 5 -5 14 -2 25 6
30 15 9 -41 11 -73 2z"/>
<path d="M2390 2062 c0 -12 24 -22 54 -22 12 0 27 -5 33 -11 8 -8 19 -8 42 2
38 17 40 29 4 29 -16 0 -52 3 -80 6 -34 5 -53 3 -53 -4z"/>
<path d="M2080 2005 c0 -8 6 -12 14 -9 7 3 16 -2 19 -11 5 -12 15 -14 47 -9
25 4 40 3 40 -4 0 -15 78 -53 85 -41 4 5 1 17 -6 25 -12 14 -8 15 34 9 26 -4
47 -5 47 -2 0 3 -16 15 -35 27 -30 19 -40 20 -67 11 -46 -16 -123 -14 -138 4
-16 19 -40 19 -40 0z"/>
<path d="M2810 1981 c-12 -17 -32 -34 -46 -37 -13 -3 -24 -12 -24 -19 0 -7 -6
-16 -12 -18 -8 -3 -7 -6 4 -6 9 -1 20 4 23 9 3 6 18 10 33 10 20 0 23 3 13 9
-23 15 12 43 44 35 30 -7 33 6 6 30 -18 16 -20 16 -41 -13z"/>
<path d="M2455 1986 c-11 -9 -33 -16 -50 -17 l-30 -1 28 -8 c16 -5 34 -14 42
-20 11 -9 16 -7 25 10 6 12 10 28 8 36 -3 13 -5 13 -23 0z"/>
<path d="M2180 1939 c0 -5 5 -7 10 -4 6 3 10 8 10 11 0 2 -4 4 -10 4 -5 0 -10
-5 -10 -11z"/>
<path d="M2508 1934 c-27 -14 -35 -33 -21 -47 3 -4 14 0 24 9 10 9 27 14 39
11 11 -3 18 -2 15 3 -3 4 2 11 11 14 8 3 12 10 9 16 -9 14 -45 12 -77 -6z"/>
<path d="M2634 1916 c-10 -8 -16 -18 -12 -22 4 -4 15 -1 24 7 13 11 18 11 21
2 6 -18 20 -16 27 3 3 8 2 12 -3 9 -5 -3 -12 -1 -16 5 -8 14 -18 13 -41 -4z"/>
<path d="M2585 1880 c4 -6 11 -8 16 -5 14 9 11 15 -7 15 -8 0 -12 -5 -9 -10z"/>
<path d="M1775 1780 c3 -5 8 -10 11 -10 2 0 4 5 4 10 0 6 -5 10 -11 10 -5 0
-7 -4 -4 -10z"/>
<path d="M1617 1774 c-4 -4 -7 -103 -7 -220 0 -131 -4 -215 -10 -219 -5 -3
-10 -39 -11 -78 0 -86 -11 -68 -29 49 -12 74 -40 161 -46 139 -1 -5 -4 -81 -7
-167 -4 -149 4 -202 19 -122 5 25 9 32 15 22 5 -7 9 -23 9 -34 0 -12 6 -24 14
-27 28 -11 56 164 62 388 2 88 6 172 8 186 5 34 -7 93 -17 83z"/>
<path d="M1170 1701 c0 -16 -7 -36 -15 -45 -8 -8 -15 -25 -15 -39 0 -13 -3
-27 -7 -31 -13 -13 -11 -35 4 -40 8 -3 11 -1 8 4 -4 6 1 24 9 42 9 17 16 39
16 50 0 10 4 18 9 18 5 0 11 16 13 35 3 24 0 35 -9 35 -8 0 -13 -12 -13 -29z"/>
<path d="M592 1615 c0 -16 2 -22 5 -12 2 9 2 23 0 30 -3 6 -5 -1 -5 -18z"/>
<path d="M1801 1578 c-1 -33 3 -58 9 -58 12 0 12 67 0 95 -6 14 -9 4 -9 -37z"/>
<path d="M3070 1581 c0 -6 5 -13 10 -16 6 -3 10 1 10 9 0 9 -4 16 -10 16 -5 0
-10 -4 -10 -9z"/>
<path d="M4351 1543 c0 -16 4 -37 9 -48 6 -15 9 -8 9 28 1 26 -3 47 -9 47 -5
0 -10 -12 -9 -27z"/>
<path d="M571 1524 c0 -11 3 -14 6 -6 3 7 2 16 -1 19 -3 4 -6 -2 -5 -13z"/>
<path d="M1103 1519 c-6 -6 -9 -18 -6 -25 3 -8 0 -14 -6 -14 -6 0 -11 -10 -11
-21 0 -12 -8 -28 -17 -35 -14 -9 -15 -16 -7 -24 9 -9 16 -4 28 21 9 18 16 38
16 45 0 7 4 14 9 16 12 4 24 48 14 48 -5 0 -14 -5 -20 -11z"/>
<path d="M3118 1479 l-3 -34 -53 3 c-30 2 -77 -2 -105 -8 -29 -6 -62 -13 -75
-16 -15 -3 -30 3 -46 21 l-23 25 1 -228 c1 -194 -1 -227 -14 -229 -8 -1 -50
-5 -92 -8 -123 -10 -91 -25 53 -25 143 0 182 -10 216 -57 10 -14 24 -31 31
-38 6 -8 12 -18 12 -24 0 -6 4 -19 9 -29 22 -42 39 -90 45 -127 5 -32 2 -48
-16 -76 -32 -50 -75 -99 -87 -99 -6 0 -7 -7 -4 -17 4 -10 2 -14 -5 -9 -6 3
-13 -3 -17 -14 -3 -11 -11 -21 -16 -21 -5 -1 -13 -2 -18 -3 -5 0 -13 -5 -18
-10 -5 -5 -2 -6 7 -1 8 4 -3 -9 -25 -29 -22 -19 -48 -36 -57 -36 -10 0 -17 -4
-15 -9 1 -5 -2 -10 -8 -11 -5 -1 -21 -6 -34 -11 -26 -10 -61 -3 -61 12 0 16
-29 41 -40 34 -6 -3 -7 1 -4 10 4 9 3 15 -2 13 -5 -2 -9 -1 -10 2 -3 12 -90
96 -96 93 -5 -2 -8 0 -8 5 0 5 -11 15 -25 22 -13 7 -22 18 -18 23 3 6 1 7 -5
3 -7 -4 -12 -2 -12 4 0 6 -15 17 -34 25 -19 8 -38 20 -41 26 -4 5 -13 8 -20 5
-9 -3 -12 2 -10 15 3 15 0 17 -13 10 -9 -4 -23 -6 -29 -4 -23 8 -14 -7 10 -17
75 -34 180 -114 283 -217 41 -41 77 -85 80 -97 3 -12 34 -53 69 -91 61 -66 78
-95 55 -95 -5 0 -10 -7 -10 -15 0 -8 -4 -15 -8 -15 -4 0 -16 -14 -26 -30 -16
-28 -22 -31 -64 -29 -46 2 -159 36 -204 61 -12 7 -31 22 -41 33 -11 11 -24 19
-31 18 -7 -2 -27 13 -46 32 -19 19 -40 35 -47 35 -7 0 -13 4 -13 8 0 4 -15 16
-32 27 -47 27 -118 83 -150 116 -32 33 -29 66 3 48 11 -5 24 -7 29 -4 6 4 17
-1 26 -9 17 -18 34 -21 34 -7 0 5 -9 13 -20 16 -11 3 -20 10 -20 14 0 4 -14 8
-32 9 -18 2 -33 4 -34 5 -3 3 36 129 47 149 13 26 12 28 -22 28 -26 0 -30 -3
-24 -18 20 -48 19 -52 -19 -52 -38 0 -49 -18 -16 -27 18 -5 18 -7 5 -40 -24
-57 -20 -108 11 -132 15 -12 23 -25 18 -32 -4 -7 -3 -9 3 -6 16 10 56 -27 58
-52 2 -19 0 -20 -15 -6 -15 13 -17 13 -16 -2 1 -10 -3 -20 -9 -21 -5 -2 -18
-8 -28 -13 -13 -7 -19 -6 -24 6 -5 13 -7 14 -14 3 -6 -9 -9 -9 -9 -1 0 6 -8
12 -17 12 -61 1 -129 38 -185 100 -37 41 -48 39 -48 -10 0 -21 -19 -27 -21 -6
-6 50 -6 77 -1 77 4 0 33 25 66 55 32 30 68 56 80 56 17 1 18 2 3 6 -9 2 -47
-10 -83 -27 -52 -26 -66 -38 -71 -60 -3 -16 -29 -54 -58 -87 -70 -76 -67 -72
-92 -113 -44 -71 -93 -104 -93 -62 0 9 -9 28 -20 42 -11 14 -20 33 -20 43 0
24 -7 22 -105 -24 -80 -38 -88 -40 -103 -25 -15 15 -14 17 8 33 14 9 51 43 83
75 32 32 62 58 67 58 5 0 15 3 24 6 12 5 16 0 16 -19 0 -14 4 -28 9 -31 12 -8
141 128 141 148 0 9 7 19 15 22 8 4 15 10 15 14 0 8 87 97 98 101 4 1 12 3 17
4 37 11 45 17 45 35 0 15 7 20 26 20 20 0 25 4 20 16 -3 9 -6 20 -6 25 0 5 -4
9 -10 9 -5 0 -10 -4 -10 -9 0 -14 -76 -86 -91 -86 -8 0 -20 -6 -27 -15 -12
-13 -12 -13 -6 0 4 9 3 12 -2 7 -5 -5 -9 -13 -9 -17 0 -13 -67 -70 -76 -65 -4
3 -5 -3 -2 -14 3 -10 0 -22 -6 -25 -7 -5 -11 3 -11 18 0 14 -4 26 -9 26 -11 0
-8 26 4 37 4 4 5 2 0 -6 -5 -9 -4 -12 3 -7 6 3 9 18 6 31 -3 17 1 27 11 31 8
3 12 10 9 15 -7 12 51 47 100 60 39 10 39 11 15 23 -20 10 -24 19 -24 56 l0
45 -42 3 c-24 2 -43 7 -43 13 0 5 -9 9 -20 9 -11 0 -20 -5 -20 -11 0 -5 -13
-27 -29 -47 -20 -26 -31 -54 -36 -92 -7 -51 -33 -116 -53 -129 -5 -3 -22 -33
-38 -66 -74 -148 -97 -184 -149 -235 -30 -30 -55 -60 -55 -66 0 -25 92 -43
188 -37 83 5 92 4 92 -11 0 -19 23 -46 39 -46 6 0 11 4 11 8 0 15 50 32 95 32
44 0 95 -16 95 -30 0 -4 24 -20 53 -34 28 -15 67 -36 86 -47 30 -18 53 -21
155 -21 120 -1 181 10 217 39 8 7 20 13 26 13 6 0 16 7 23 15 16 19 51 19 76
0 10 -8 27 -15 37 -15 9 0 17 -4 17 -10 0 -5 8 -10 18 -10 9 0 26 -7 36 -15
11 -8 35 -15 53 -15 18 0 51 -7 74 -17 31 -12 46 -13 59 -5 9 5 38 13 64 17
25 4 49 11 52 16 3 5 25 18 50 29 25 12 54 30 64 40 11 11 20 17 20 14 0 -4
16 6 36 21 31 24 42 27 90 23 38 -3 61 -11 79 -28 22 -20 25 -21 39 -7 21 20
20 28 0 20 -18 -7 -33 9 -88 92 -18 28 -54 73 -80 102 l-47 52 39 20 c21 11
44 27 51 35 8 9 17 16 21 16 4 0 36 -29 72 -65 70 -69 98 -81 98 -41 0 19 4
23 20 19 26 -7 191 -154 184 -165 -11 -18 -65 -6 -127 27 -36 19 -69 35 -75
35 -9 0 -52 -72 -52 -88 0 -4 24 -8 53 -8 28 -1 70 -2 92 -4 48 -3 134 10 140
21 3 4 -22 36 -55 71 -46 47 -76 93 -121 183 -33 66 -66 123 -72 127 -8 5 -12
62 -12 185 -1 98 -7 201 -13 228 -6 28 -21 104 -33 170 -11 66 -26 127 -33
135 -17 21 -46 116 -46 154 0 47 -18 68 -22 25z m-133 -1127 c0 -18 -20 -15
-23 4 -3 10 1 15 10 12 7 -3 13 -10 13 -16z"/>
<path d="M3374 1388 c15 -300 19 -352 36 -419 22 -85 40 -111 40 -57 0 39 14
58 24 32 3 -9 6 -33 6 -54 0 -21 4 -41 9 -44 4 -3 11 -24 15 -45 9 -57 55
-199 66 -206 12 -7 1 56 -11 70 -5 5 -9 18 -9 29 0 11 -4 33 -9 50 -23 75 -41
221 -41 333 0 67 -4 124 -9 127 -11 7 -21 -17 -21 -48 0 -12 -5 -27 -11 -33
-5 -5 -11 -26 -11 -44 -1 -36 -13 -69 -27 -69 -5 0 -7 19 -6 43 2 23 -3 57
-11 76 -10 24 -14 82 -14 207 0 116 -4 174 -11 174 -7 0 -8 -39 -5 -122z"/>
<path d="M567 1478 c-2 -7 -1 -22 4 -33 6 -16 8 -14 8 13 1 33 -4 41 -12 20z"/>
<path d="M1821 1307 c-1 -77 3 -116 9 -112 12 7 12 168 0 205 -5 16 -8 -18 -9
-93z"/>
<path d="M1027 1363 c-2 -10 -8 -26 -12 -35 -4 -11 -3 -18 4 -18 6 0 11 6 11
14 0 8 7 16 15 20 8 3 12 12 9 21 -8 20 -20 19 -27 -2z"/>
<path d="M544 1314 c-4 -14 -2 -35 4 -47 9 -19 11 -15 11 26 1 52 -5 61 -15
21z"/>
<path d="M2250 1265 c-2 -70 -2 -168 0 -235 l2 -35 8 33 c10 44 11 218 1 267
-8 37 -9 36 -11 -30z"/>
<path d="M4375 1318 c-3 -7 -1 -26 4 -43 9 -29 9 -29 10 13 1 41 -5 54 -14 30z"/>
<path d="M2541 1278 c-1 -34 -11 -40 -66 -40 -60 0 -83 -24 -65 -69 11 -26 11
-32 -1 -40 -16 -9 -18 -35 -7 -61 6 -12 26 -19 68 -24 58 -6 60 -8 60 -36 0
-18 -6 -31 -17 -34 -10 -3 -58 -26 -107 -50 l-90 -44 -32 30 -31 31 -64 -53
c-113 -94 -157 -128 -167 -128 -10 0 -22 -23 -22 -40 0 -11 57 5 76 21 8 7 27
9 49 5 27 -5 37 -3 41 9 6 16 74 22 74 7 0 -5 -11 -30 -25 -57 -33 -67 -23
-77 54 -54 33 10 37 14 33 39 -2 16 2 36 9 45 8 9 21 24 29 34 8 10 16 23 18
30 1 7 11 22 22 34 11 11 20 23 20 27 0 14 146 95 174 96 51 1 58 3 53 17 -2
6 -19 12 -38 12 -33 0 -34 1 -31 35 6 79 4 198 -6 240 -7 33 -10 38 -11 18z
m-11 -138 c0 -5 -19 -9 -42 -9 -40 1 -41 2 -13 9 44 11 55 11 55 0z m-360
-328 c0 -13 -12 -22 -22 -16 -10 6 -1 24 13 24 5 0 9 -4 9 -8z m84 -7 c4 -11
-1 -15 -19 -15 -16 0 -25 6 -25 15 0 8 9 15 19 15 10 0 21 -7 25 -15z m-106
-22 c2 -9 -7 -13 -25 -13 -16 0 -34 -5 -41 -12 -6 -6 -14 -9 -18 -6 -3 4 3 15
14 26 21 21 63 24 70 5z"/>
<path d="M985 1271 c-6 -11 9 -23 19 -14 9 9 7 23 -3 23 -6 0 -12 -4 -16 -9z"/>
<path d="M936 1218 c-24 -33 -19 -39 14 -20 31 18 40 42 16 42 -8 0 -22 -10
-30 -22z"/>
<path d="M532 1210 c0 -14 2 -19 5 -12 2 6 2 18 0 25 -3 6 -5 1 -5 -13z"/>
<path d="M4401 1184 c0 -11 3 -14 6 -6 3 7 2 16 -1 19 -3 4 -6 -2 -5 -13z"/>
<path d="M528 1174 c-5 -4 -8 -27 -8 -50 0 -23 -4 -53 -9 -67 -6 -14 -6 -29 0
-38 6 -10 9 -6 9 14 0 16 5 37 11 48 11 22 8 105 -3 93z"/>
<path d="M860 1118 c-14 -16 -27 -33 -28 -39 -2 -5 -8 -7 -13 -3 -5 3 -9 0 -9
-5 0 -6 -9 -11 -19 -11 -21 0 -37 -28 -23 -42 9 -9 126 107 120 121 -1 5 -14
-4 -28 -21z"/>
<path d="M4400 1123 c0 -21 3 -24 9 -14 5 8 7 20 4 28 -8 21 -13 15 -13 -14z"/>
<path d="M654 1118 c-4 -13 -7 -29 -6 -35 2 -7 -2 -13 -8 -13 -5 0 -10 -5 -10
-10 0 -14 -37 -66 -80 -111 -36 -38 -47 -59 -31 -59 4 0 19 11 32 24 22 21 61
46 73 46 3 0 6 -26 8 -57 5 -82 14 -48 27 101 12 127 10 160 -5 114z"/>
<path d="M1800 1104 c0 -8 5 -12 10 -9 6 3 10 10 10 16 0 5 -4 9 -10 9 -5 0
-10 -7 -10 -16z"/>
<path d="M791 1094 c0 -11 3 -14 6 -6 3 7 2 16 -1 19 -3 4 -6 -2 -5 -13z"/>
<path d="M1501 1064 c0 -11 3 -14 6 -6 3 7 2 16 -1 19 -3 4 -6 -2 -5 -13z"/>
<path d="M4421 1044 c0 -11 3 -14 6 -6 3 7 2 16 -1 19 -3 4 -6 -2 -5 -13z"/>
<path d="M1480 999 c0 -11 5 -17 10 -14 6 3 10 13 10 21 0 8 -4 14 -10 14 -5
0 -10 -9 -10 -21z"/>
<path d="M4417 1001 c-2 -11 1 -32 9 -47 8 -14 14 -42 14 -60 0 -19 5 -34 10
-34 6 0 10 -12 10 -26 0 -14 7 -32 15 -40 20 -20 19 -9 -4 57 -10 30 -21 74
-25 99 -8 57 -21 80 -29 51z"/>
<path d="M495 950 c-4 -22 -11 -42 -16 -46 -5 -3 -9 -15 -9 -27 0 -16 3 -18
12 -9 14 14 38 80 38 105 0 33 -18 17 -25 -23z"/>
<path d="M1470 938 c-7 -18 -16 -51 -20 -73 -5 -22 -11 -50 -15 -62 -11 -33 8
-28 23 6 14 31 36 151 29 158 -3 2 -10 -11 -17 -29z"/>
<path d="M1747 916 c-14 -21 -14 -26 -2 -36 8 -7 15 -11 16 -9 3 20 6 69 4 69
-1 0 -10 -11 -18 -24z"/>
<path d="M4130 911 c0 -6 5 -13 10 -16 6 -3 10 1 10 9 0 9 -4 16 -10 16 -5 0
-10 -4 -10 -9z"/>
<path d="M4335 900 c-3 -5 -1 -10 4 -10 6 0 11 5 11 10 0 6 -2 10 -4 10 -3 0
-8 -4 -11 -10z"/>
<path d="M1690 880 c0 -5 5 -10 11 -10 5 0 7 5 4 10 -3 6 -8 10 -11 10 -2 0
-4 -4 -4 -10z"/>
<path d="M4154 868 c1 -7 8 -24 16 -38 7 -14 13 -26 12 -27 -1 -2 -2 -6 -2
-10 0 -5 4 -2 9 5 5 8 2 27 -8 48 -15 33 -31 46 -27 22z"/>
<path d="M4350 776 c0 -98 16 -171 31 -144 5 9 4 30 -1 49 -15 52 -13 59 21
59 17 0 29 3 27 8 -24 48 -32 62 -40 62 -4 0 -8 14 -8 30 0 20 -5 30 -15 30
-12 0 -15 -17 -15 -94z"/>
<path d="M617 785 c-4 -27 -14 -72 -22 -99 -19 -61 -19 -71 0 -52 8 8 15 22
15 31 0 9 5 25 10 36 6 11 10 45 8 77 l-3 57 -8 -50z"/>
<path d="M1852 765 c-12 -5 -21 -14 -19 -19 5 -15 38 -16 44 -1 8 23 -1 31
-25 20z"/>
<path d="M1431 763 c0 -6 -4 -20 -7 -30 -5 -14 -4 -15 5 -7 7 7 11 20 8 30 -3
11 -5 14 -6 7z"/>
<path d="M4200 753 c1 -21 27 -59 35 -51 7 7 -11 54 -24 63 -6 3 -11 -2 -11
-12z"/>
<path d="M4480 758 c0 -6 7 -19 16 -29 12 -13 13 -22 5 -37 -8 -15 -6 -23 8
-36 9 -9 20 -16 23 -16 8 0 -10 78 -25 108 -11 23 -27 30 -27 10z"/>
<path d="M1170 713 c0 -21 5 -45 10 -53 7 -11 10 -2 10 32 0 26 -4 50 -10 53
-6 4 -10 -9 -10 -32z"/>
<path d="M1403 684 c-7 -7 -13 -20 -13 -28 0 -8 -4 -18 -10 -21 -5 -3 -10 -15
-10 -26 0 -10 -4 -19 -9 -19 -5 0 -13 -10 -17 -22 -4 -13 -11 -26 -16 -29 -6
-4 -8 -15 -6 -25 3 -13 20 13 53 79 46 94 54 120 28 91z"/>
<path d="M1144 627 c-3 -10 -4 -31 -2 -48 3 -20 0 -33 -9 -36 -7 -3 -13 -10
-13 -15 0 -6 -13 -27 -28 -47 -44 -56 -46 -61 -20 -58 22 2 23 -1 21 -59 -1
-34 -8 -76 -17 -92 -19 -37 -20 -42 -5 -42 23 0 41 30 34 58 -3 16 1 43 10 65
8 20 15 50 15 66 0 16 5 33 10 36 6 3 10 23 10 44 0 21 7 55 16 76 14 34 14
39 0 53 -14 14 -16 14 -22 -1z"/>
<path d="M562 585 c-9 -20 -9 -25 2 -25 13 0 26 20 26 41 0 18 -17 8 -28 -16z"/>
<path d="M4384 595 c5 -11 11 -30 13 -42 3 -13 9 -23 14 -23 5 0 9 -9 9 -20 0
-11 7 -20 15 -20 20 0 19 4 -9 49 -14 21 -23 41 -20 43 2 3 -3 11 -13 19 -15
13 -16 12 -9 -6z"/>
<path d="M537 533 c-4 -3 -7 -12 -7 -19 0 -7 -16 -40 -34 -73 -19 -34 -31 -61
-25 -61 13 0 69 90 69 111 0 10 5 21 10 24 6 3 10 10 10 16 0 10 -14 12 -23 2z"/>
<path d="M2030 526 c0 -17 23 -27 40 -16 10 6 8 11 -8 19 -27 14 -32 14 -32
-3z"/>
<path d="M3623 480 c12 -22 28 -42 35 -45 7 -2 11 -1 9 3 -26 56 -44 82 -53
82 -8 0 -4 -15 9 -40z"/>
<path d="M3865 510 c-3 -5 -1 -10 4 -10 6 0 11 5 11 10 0 6 -2 10 -4 10 -3 0
-8 -4 -11 -10z"/>
<path d="M1990 498 c0 -4 -7 -8 -15 -8 -9 0 -18 -7 -21 -15 -4 -8 -12 -15 -20
-15 -8 0 -14 -4 -14 -10 0 -5 -5 -10 -11 -10 -15 0 -39 -26 -39 -42 1 -9 5 -7
14 5 7 9 18 17 25 17 6 0 11 5 11 10 0 6 9 10 19 10 11 0 28 11 39 25 11 14
25 25 31 25 6 0 11 4 11 8 0 5 -7 9 -15 9 -8 0 -15 -4 -15 -9z"/>
<path d="M1283 449 c-1 -12 -1 -20 0 -18 2 2 9 12 16 22 11 14 11 17 -1 17 -7
0 -14 -10 -15 -21z"/>
<path d="M3888 465 c-8 -8 2 -45 13 -45 5 0 6 -6 3 -13 -3 -8 2 -19 10 -26 8
-7 12 -19 9 -26 -3 -8 4 -30 16 -48 28 -46 27 -60 -4 -55 -14 3 -25 1 -25 -3
0 -5 8 -9 18 -9 9 0 29 -6 44 -14 27 -14 27 -14 21 15 -5 28 -4 29 30 29 31 0
61 -11 141 -52 12 -6 22 -6 29 1 8 8 6 11 -6 11 -9 0 -17 5 -17 10 0 6 -13 10
-30 10 -16 0 -30 5 -30 10 0 6 -9 10 -19 10 -11 0 -23 4 -26 10 -3 5 -21 17
-39 25 -59 28 -111 90 -128 153 -2 7 -6 10 -10 7z"/>
<path d="M675 449 c-4 -6 -5 -13 -2 -16 7 -7 27 6 27 18 0 12 -17 12 -25 -2z"/>
<path d="M4460 451 c0 -5 7 -14 15 -21 16 -14 18 -10 9 14 -6 17 -24 22 -24 7z"/>
<path d="M1230 388 c-11 -12 -20 -25 -20 -30 0 -4 -6 -8 -13 -8 -7 0 -23 -13
-35 -30 -13 -16 -18 -30 -13 -30 14 0 111 95 111 109 0 16 -7 14 -30 -11z"/>
<path d="M620 370 c-6 -11 -8 -20 -6 -20 3 0 10 9 16 20 6 11 8 20 6 20 -3 0
-10 -9 -16 -20z"/>
<path d="M975 370 c-10 -11 -13 -20 -8 -20 13 0 38 29 31 35 -3 3 -13 -4 -23
-15z"/>
<path d="M3702 369 c2 -6 8 -10 13 -10 5 0 11 4 13 10 2 6 -4 11 -13 11 -9 0
-15 -5 -13 -11z"/>
<path d="M4526 355 c4 -8 13 -15 21 -15 13 0 13 3 3 15 -7 8 -16 15 -21 15 -5
0 -6 -7 -3 -15z"/>
<path d="M901 343 c-24 -5 -61 -33 -43 -33 14 0 82 29 82 35 0 3 -3 4 -7 4 -5
-1 -19 -4 -32 -6z"/>
<path d="M4380 320 c6 -11 20 -25 33 -31 21 -12 21 -11 7 7 -37 46 -59 60 -40
24z"/>
<path d="M391 296 c-19 -19 -47 -40 -63 -47 -23 -10 -27 -14 -15 -20 23 -13
85 -21 107 -14 25 8 27 39 3 31 -10 -3 -31 -8 -48 -12 -30 -6 -30 -6 -8 10 25
19 67 75 61 81 -2 3 -19 -11 -37 -29z"/>
<path d="M3770 320 c0 -9 91 -60 106 -60 3 0 1 7 -6 15 -7 8 -21 15 -31 15
-10 0 -22 6 -26 13 -10 17 -43 30 -43 17z"/>
<path d="M800 305 c-7 -9 -21 -13 -35 -9 -13 3 -37 -2 -55 -11 -27 -14 -49
-16 -130 -10 -93 7 -97 6 -103 -14 -4 -17 -1 -19 22 -16 14 3 73 9 131 14 108
10 213 37 204 52 -8 13 -20 11 -34 -6z"/>
<path d="M2400 300 c0 -6 7 -13 15 -16 8 -4 12 -10 9 -15 -3 -5 2 -6 11 -3 9
4 26 -4 41 -20 15 -14 30 -24 34 -21 4 3 10 -5 13 -16 3 -12 10 -18 16 -14 6
3 11 0 11 -7 0 -18 67 -81 74 -69 6 10 -38 61 -53 61 -5 0 -13 9 -16 21 -4 11
-9 18 -13 15 -3 -3 -12 4 -20 15 -14 21 -98 79 -114 79 -4 0 -8 -5 -8 -10z"/>
<path d="M4620 271 c0 -14 36 -51 50 -51 20 0 10 16 -33 49 -11 9 -17 10 -17
2z"/>
<path d="M4495 240 c-3 -5 -1 -10 4 -10 6 0 11 5 11 10 0 6 -2 10 -4 10 -3 0
-8 -4 -11 -10z"/>
<path d="M4210 220 c0 -5 9 -10 20 -10 11 0 20 5 20 10 0 6 -9 10 -20 10 -11
0 -20 -4 -20 -10z"/>
<path d="M4270 199 c0 -14 49 -19 453 -45 42 -3 77 -2 77 3 0 4 -19 17 -43 27
-23 11 -45 22 -50 24 -4 2 -4 -3 -1 -12 3 -9 15 -16 25 -16 10 0 19 -4 19 -10
0 -5 -22 -10 -50 -10 -35 0 -49 4 -47 13 1 9 -29 12 -124 12 -87 0 -131 4
-141 13 -16 13 -118 14 -118 1z"/>
<path d="M2667 94 c-8 -8 1 -24 14 -24 5 0 9 7 9 15 0 15 -12 20 -23 9z"/>
</g>
</svg>
